<svg width="45" height="45" viewBox="0 0 45 45" fill="none" xmlns="http://www.w3.org/2000/svg">
<path d="M22.5 32.8125C24.625 32.8125 26.5547 32.2109 28.2891 31.0078C30.0234 29.8047 31.2812 28.2188 32.0625 26.25H12.9375C13.7188 28.2188 14.9766 29.8047 16.7109 31.0078C18.4453 32.2109 20.375 32.8125 22.5 32.8125ZM14.625 20.625L16.6875 18.6562L18.6562 20.625L20.625 18.6562L16.6875 14.625L12.6562 18.6562L14.625 20.625ZM26.3438 20.625L28.3125 18.6562L30.375 20.625L32.3438 18.6562L28.3125 14.625L24.375 18.6562L26.3438 20.625ZM22.5 41.25C19.9062 41.25 17.4688 40.7578 15.1875 39.7734C12.9062 38.7891 10.9219 37.4531 9.23438 35.7656C7.54688 34.0781 6.21094 32.0938 5.22656 29.8125C4.24219 27.5312 3.75 25.0938 3.75 22.5C3.75 19.9062 4.24219 17.4688 5.22656 15.1875C6.21094 12.9062 7.54688 10.9219 9.23438 9.23438C10.9219 7.54688 12.9062 6.21094 15.1875 5.22656C17.4688 4.24219 19.9062 3.75 22.5 3.75C25.0938 3.75 27.5312 4.24219 29.8125 5.22656C32.0938 6.21094 34.0781 7.54688 35.7656 9.23438C37.4531 10.9219 38.7891 12.9062 39.7734 15.1875C40.7578 17.4688 41.25 19.9062 41.25 22.5C41.25 25.0938 40.7578 27.5312 39.7734 29.8125C38.7891 32.0938 37.4531 34.0781 35.7656 35.7656C34.0781 37.4531 32.0938 38.7891 29.8125 39.7734C27.5312 40.7578 25.0938 41.25 22.5 41.25Z" fill="white"/>
</svg>
